<?xml version="1.0" encoding="utf-8" standalone="no"?>
<!DOCTYPE svg PUBLIC "-//W3C//DTD SVG 1.1//EN"
  "http://www.w3.org/Graphics/SVG/1.1/DTD/svg11.dtd">
<!-- Created with matplotlib (http://matplotlib.org/) -->
<svg height="432pt" version="1.1" viewBox="0 0 432 432" width="432pt" xmlns="http://www.w3.org/2000/svg" xmlns:xlink="http://www.w3.org/1999/xlink">
 <defs>
  <style type="text/css">
*{stroke-linecap:butt;stroke-linejoin:round;}
  </style>
 </defs>
 <g id="figure_1">
  <g id="patch_1">
   <path d="
M0 432
L432 432
L432 0
L0 0
z
" style="fill:#ffffff;"/>
  </g>
  <g id="axes_1">
   <g id="patch_2">
    <path d="
M34.56 397.44
L401.76 397.44
L401.76 30.24
L34.56 30.24
z
" style="fill:#ffffff;"/>
   </g>
   <g id="LineCollection_1">
    <defs>
     <path d="
M364.364 -34.56
L363.418 -35.5227
L362.915 -36.0347
L361.943 -37.0236
L361.466 -37.5094
L360.468 -38.5245
L360.017 -38.9841
L358.994 -40.0255
L358.568 -40.4588
L357.519 -41.5264
L357.119 -41.9335
L356.044 -43.0273
L355.67 -43.4082
L354.57 -44.5283
L354.221 -44.8829
L353.095 -46.0292
L352.772 -46.3576
L351.62 -47.5301
L351.323 -47.8323
L350.146 -49.0311
L349.874 -49.307
L348.671 -50.532
L348.426 -50.7817
L347.196 -52.0329
L346.977 -52.2564
L345.721 -53.5339
L345.528 -53.7311
L344.247 -55.0348
L344.079 -55.2058
L342.772 -56.5357
L342.63 -56.6805
L341.297 -58.0367
L341.181 -58.1552
L339.823 -59.5376
L339.732 -59.6299
L338.348 -61.0385
L338.283 -61.1046
L336.873 -62.5395
L336.834 -62.5793
L335.399 -64.0404
L335.385 -64.054
L333.936 -65.5287
L333.924 -65.5414
L332.487 -67.0034
L332.449 -67.0423
L331.038 -68.4781
L330.974 -68.5432
L329.59 -69.9528
L329.5 -70.0442
L328.141 -71.4275
L328.025 -71.5451
L326.692 -72.9022
L326.55 -73.0461
L325.243 -74.3769
L325.076 -74.547
L323.794 -75.8516
L323.601 -76.0479
L322.345 -77.3263
L322.126 -77.5489
L320.896 -78.801
L320.652 -79.0498
L319.447 -80.2757
L319.177 -80.5507
L317.998 -81.7504
L317.702 -82.0517
L316.549 -83.2251
L316.227 -83.5526
L315.1 -84.6998
L314.753 -85.0535
L313.651 -86.1745
L313.278 -86.5545
L312.203 -87.6492
L311.803 -88.0554
L310.754 -89.1239
L310.329 -89.5563
L309.305 -90.5986
L308.854 -91.0573
L307.856 -92.0733
L307.379 -92.5582
L306.407 -93.548
L305.905 -94.0591
L304.958 -95.0227
L304.43 -95.5601
L303.509 -96.4973
L302.955 -97.061
L302.06 -97.972
L301.48 -98.5619
L300.611 -99.4467
L300.006 -100.063
L299.162 -100.921
L298.531 -101.564
L297.713 -102.396
L297.056 -103.065
L296.264 -103.871
L295.582 -104.566
L294.815 -105.346
L294.107 -106.067
L293.366 -106.82
L292.632 -107.567
L291.918 -108.295
L291.158 -109.068
L290.469 -109.77
L289.683 -110.569
L289.02 -111.244
L288.208 -112.07
L287.571 -112.719
L286.733 -113.571
L286.122 -114.194
L285.259 -115.072
L284.673 -115.668
L283.784 -116.573
L283.224 -117.143
L282.309 -118.074
L281.775 -118.618
L280.835 -119.575
L280.326 -120.093
L279.36 -121.076
L278.877 -121.567
L277.885 -122.577
L277.428 -123.042
L276.411 -124.078
L275.979 -124.517
L274.936 -125.579
L274.53 -125.991
L273.461 -127.08
L273.082 -127.466
L271.987 -128.581
L271.633 -128.941
L270.512 -130.081
L270.184 -130.415
L269.037 -131.582
L268.735 -131.89
L267.562 -133.083
L267.286 -133.365
L266.088 -134.584
L265.837 -134.84
L264.613 -136.085
L264.388 -136.314
L263.138 -137.586
L262.939 -137.789
L261.664 -139.087
L261.49 -139.264
L260.189 -140.588
L260.041 -140.738
L258.714 -142.089
L258.592 -142.213
L257.24 -143.59
L257.143 -143.688
L255.765 -145.091
L255.694 -145.162
L254.29 -146.592
L254.246 -146.637
L252.815 -148.093
L252.797 -148.112
L251.348 -149.587
L251.341 -149.594
L249.899 -151.061
L249.866 -151.095
L248.45 -152.536
L248.391 -152.596
L247.001 -154.011
L246.917 -154.096
L245.552 -155.485
L245.442 -155.597
L244.103 -156.96
L243.967 -157.098
L242.654 -158.435
L242.493 -158.599
L241.205 -159.909
L241.018 -160.1
L239.756 -161.384
L239.543 -161.601
L238.307 -162.859
L238.068 -163.102
L236.859 -164.333
L236.594 -164.603
L235.41 -165.808
L235.119 -166.104
L233.961 -167.283
L233.644 -167.605
L232.512 -168.758
L232.17 -169.106
L231.063 -170.232
L230.695 -170.607
L229.614 -171.707
L229.22 -172.108
L228.165 -173.182
L227.746 -173.609
L226.716 -174.656
L226.271 -175.11
L225.267 -176.131
L224.796 -176.61
L223.818 -177.606
L223.321 -178.111
L222.369 -179.08
L221.847 -179.612
L220.92 -180.555
L220.372 -181.113
L219.471 -182.03
L218.897 -182.614
L218.023 -183.505
L217.423 -184.115
L216.574 -184.979
L215.948 -185.616
L215.125 -186.454
L214.473 -187.117
L213.676 -187.929
L212.999 -188.618
L212.227 -189.403
L211.524 -190.119
L210.778 -190.878
L210.049 -191.62
L209.329 -192.353
L208.574 -193.121
L207.88 -193.827
L207.1 -194.622
L206.431 -195.302
L205.625 -196.123
L204.982 -196.777
L204.15 -197.623
L203.533 -198.252
L202.676 -199.124
L202.084 -199.726
L201.201 -200.625
L200.635 -201.201
L199.726 -202.126
L199.186 -202.676
L198.252 -203.627
L197.738 -204.15
L196.777 -205.128
L196.289 -205.625
L195.302 -206.629
L194.84 -207.1
L193.827 -208.13
L193.391 -208.574
L192.353 -209.631
L191.942 -210.049
L190.878 -211.132
L190.493 -211.524
L189.403 -212.633
L189.044 -212.999
L187.929 -214.134
L187.595 -214.473
L186.454 -215.635
L186.146 -215.948
L184.979 -217.136
L184.697 -217.423
L183.505 -218.637
L183.248 -218.897
L182.03 -220.137
L181.799 -220.372
L180.555 -221.638
L180.35 -221.847
L179.08 -223.139
L178.902 -223.321
L177.606 -224.64
L177.453 -224.796
L176.131 -226.141
L176.004 -226.271
L174.656 -227.642
L174.555 -227.746
L173.182 -229.143
L173.106 -229.22
L171.707 -230.644
L171.657 -230.695
L170.232 -232.145
L170.208 -232.17
L168.759 -233.644
L168.758 -233.646
L167.31 -235.119
L167.283 -235.147
L165.861 -236.594
L165.808 -236.648
L164.412 -238.068
L164.333 -238.149
L162.963 -239.543
L162.859 -239.65
L161.515 -241.018
L161.384 -241.151
L160.066 -242.493
L159.909 -242.652
L158.617 -243.967
L158.435 -244.152
L157.168 -245.442
L156.96 -245.653
L155.719 -246.917
L155.485 -247.154
L154.27 -248.391
L154.011 -248.655
L152.821 -249.866
L152.536 -250.156
L151.372 -251.341
L151.061 -251.657
L149.923 -252.815
L149.587 -253.158
L148.474 -254.29
L148.112 -254.659
L147.025 -255.765
L146.637 -256.16
L145.576 -257.24
L145.162 -257.661
L144.127 -258.714
L143.688 -259.162
L142.679 -260.189
L142.213 -260.663
L141.23 -261.664
L140.738 -262.164
L139.781 -263.138
L139.264 -263.665
L138.332 -264.613
L137.789 -265.166
L136.883 -266.088
L136.314 -266.666
L135.434 -267.562
L134.84 -268.167
L133.985 -269.037
L133.365 -269.668
L132.536 -270.512
L131.89 -271.169
L131.087 -271.987
L130.415 -272.67
L129.638 -273.461
L128.941 -274.171
L128.189 -274.936
L127.466 -275.672
L126.74 -276.411
L125.991 -277.173
L125.291 -277.885
L124.517 -278.674
L123.843 -279.36
L123.042 -280.175
L122.394 -280.835
L121.567 -281.676
L120.945 -282.309
L120.093 -283.177
L119.496 -283.784
L118.618 -284.678
L118.047 -285.259
L117.143 -286.179
L116.598 -286.733
L115.668 -287.679
L115.149 -288.208
L114.194 -289.18
L113.7 -289.683
L112.719 -290.681
L112.251 -291.158
L111.244 -292.182
L110.802 -292.632
L109.77 -293.683
L109.353 -294.107
L108.295 -295.184
L107.904 -295.582
L106.82 -296.685
L106.455 -297.056
L105.346 -298.186
L105.006 -298.531
L103.871 -299.687
L103.558 -300.006
L102.396 -301.188
L102.109 -301.48
L100.921 -302.689
L100.66 -302.955
L99.4467 -304.19
L99.2108 -304.43
L97.972 -305.691
L97.7619 -305.905
L96.4973 -307.192
L96.313 -307.379
L95.0227 -308.693
L94.864 -308.854
L93.548 -310.193
L93.4151 -310.329
L92.0733 -311.694
L91.9662 -311.803
L90.5986 -313.195
L90.5173 -313.278
L89.1239 -314.696
L89.0684 -314.753
L87.6492 -316.197
L87.6195 -316.227
L86.1745 -317.698
L86.1705 -317.702
L84.7216 -319.177
L84.6998 -319.199
L83.2727 -320.652
L83.2251 -320.7
L81.8238 -322.126
L81.7504 -322.201
L80.3749 -323.601
L80.2757 -323.702
L78.926 -325.076
L78.801 -325.203
L77.477 -326.55
L77.3263 -326.704
L76.0281 -328.025
L75.8516 -328.205
L74.5792 -329.5
L74.3769 -329.706
L73.1303 -330.974
L72.9022 -331.207
L71.6813 -332.449
L71.4275 -332.708
L70.2324 -333.924
L69.9528 -334.208
L68.7835 -335.399
L68.4781 -335.709
L67.3346 -336.873
L67.0034 -337.21
L65.8857 -338.348
L65.5287 -338.711
L64.4367 -339.823
L64.054 -340.212
L62.9878 -341.297
L62.5793 -341.713
L61.5389 -342.772
L61.1046 -343.214
L60.09 -344.247
L59.6299 -344.715
L58.641 -345.721
L58.1552 -346.216
L57.1921 -347.196
L56.6805 -347.717
L55.7432 -348.671
L55.2058 -349.218
L54.2943 -350.146
L53.7311 -350.719
L52.8453 -351.62
L52.2564 -352.22
L51.3964 -353.095
L50.7817 -353.721
L49.9475 -354.57
L49.307 -355.222
L48.4986 -356.044
L47.8323 -356.722
L47.0496 -357.519
L46.3576 -358.223
L45.6007 -358.994
L44.8829 -359.724
L44.1518 -360.468
L43.4082 -361.225
L42.7029 -361.943
L41.9335 -362.726
L41.2539 -363.418
L40.4588 -364.227
L39.805 -364.893
L38.9841 -365.728
L38.3561 -366.367
L37.5094 -367.229
L36.9072 -367.842
L36.0347 -368.73
L35.4582 -369.317
L34.56 -370.231" id="C0_0_20e6a90ed5"/>
    </defs>
    <g clip-path="url(#p9a4adf5a13)">
     <use style="fill:none;stroke:#000080;" x="0.0" xlink:href="#C0_0_20e6a90ed5" y="432.0"/>
    </g>
   </g>
   <g id="LineCollection_2">
    <defs>
     <path d="
M401.76 -79.9997
L400.426 -80.2757
L400.285 -80.3051
L398.811 -80.6115
L397.336 -80.9164
L395.861 -81.2227
L394.387 -81.5331
L393.372 -81.7504
L392.912 -81.8497
L391.437 -82.1658
L389.962 -82.4812
L388.488 -82.7988
L387.013 -83.1217
L386.548 -83.2251
L385.538 -83.4496
L384.064 -83.7756
L382.589 -84.1022
L381.114 -84.4326
L379.944 -84.6998
L379.64 -84.7698
L378.165 -85.1072
L376.69 -85.444
L375.215 -85.7834
L373.741 -86.129
L373.549 -86.1745
L372.266 -86.4782
L370.791 -86.8259
L369.317 -87.1754
L367.842 -87.5303
L367.356 -87.6492
L366.367 -87.8909
L364.893 -88.2498
L363.418 -88.6101
L361.943 -88.9757
L361.355 -89.1239
L360.468 -89.3475
L358.994 -89.7179
L357.519 -90.0898
L356.044 -90.4672
L355.539 -90.5986
L354.57 -90.8506
L353.095 -91.2327
L351.62 -91.6168
L350.146 -92.0072
L349.899 -92.0733
L348.671 -92.4024
L347.196 -92.7965
L345.721 -93.1937
L344.43 -93.548
L344.247 -93.5986
L342.772 -94.0052
L341.297 -94.412
L339.823 -94.8239
L339.122 -95.0227
L338.348 -95.2431
L336.873 -95.6616
L335.399 -96.0825
L333.971 -96.4973
L333.924 -96.5111
L332.449 -96.9428
L330.974 -97.3746
L329.5 -97.8121
L328.969 -97.972
L328.025 -98.2567
L326.55 -98.7007
L325.076 -99.1486
L324.11 -99.4467
L323.601 -99.605
L322.126 -100.062
L320.652 -100.521
L319.39 -100.921
L319.177 -100.989
L317.702 -101.46
L316.227 -101.932
L314.801 -102.396
L314.753 -102.412
L313.278 -102.896
L311.803 -103.381
L310.34 -103.871
L310.329 -103.875
L308.854 -104.372
L307.379 -104.871
L306.001 -105.346
L305.905 -105.379
L304.43 -105.89
L302.955 -106.404
L301.779 -106.82
L301.48 -106.927
L300.006 -107.452
L298.531 -107.981
L297.67 -108.295
L297.056 -108.52
L295.582 -109.06
L294.107 -109.605
L293.67 -109.77
L292.632 -110.16
L291.158 -110.715
L289.774 -111.244
L289.683 -111.28
L288.208 -111.849
L286.733 -112.422
L285.979 -112.719
L285.259 -113.005
L283.784 -113.589
L282.309 -114.182
L282.281 -114.194
L280.835 -114.782
L279.36 -115.385
L278.677 -115.668
L277.885 -115.998
L276.411 -116.614
L275.162 -117.143
L274.936 -117.24
L273.461 -117.87
L271.987 -118.507
L271.734 -118.618
L270.512 -119.153
L269.037 -119.803
L268.39 -120.093
L267.562 -120.464
L266.088 -121.128
L265.127 -121.567
L264.613 -121.803
L263.138 -122.483
L261.941 -123.042
L261.664 -123.173
L260.189 -123.868
L258.831 -124.517
L258.714 -124.573
L257.24 -125.284
L255.793 -125.991
L255.765 -126.005
L254.29 -126.733
L252.825 -127.466
L252.815 -127.471
L251.341 -128.216
L249.925 -128.941
L249.866 -128.971
L248.391 -129.734
L247.09 -130.415
L246.917 -130.507
L245.442 -131.288
L244.319 -131.89
L243.967 -132.08
L242.493 -132.879
L241.608 -133.365
L241.018 -133.691
L239.543 -134.51
L238.957 -134.84
L238.068 -135.342
L236.594 -136.181
L236.363 -136.314
L235.119 -137.033
L233.826 -137.789
L233.644 -137.896
L232.17 -138.767
L231.341 -139.264
L230.695 -139.653
L229.22 -140.547
L228.908 -140.738
L227.746 -141.454
L226.526 -142.213
L226.271 -142.373
L224.796 -143.302
L224.192 -143.688
L223.321 -144.246
L221.906 -145.162
L221.847 -145.201
L220.372 -146.168
L219.666 -146.637
L218.897 -147.15
L217.47 -148.112
L217.423 -148.144
L215.948 -149.151
L215.317 -149.587
L214.473 -150.173
L213.207 -151.061
L212.999 -151.208
L211.524 -152.257
L211.136 -152.536
L210.049 -153.321
L209.106 -154.011
L208.574 -154.401
L207.113 -155.485
L207.1 -155.495
L205.625 -156.604
L205.157 -156.96
L204.15 -157.73
L203.239 -158.435
L202.676 -158.873
L201.355 -159.909
L201.201 -160.031
L199.726 -161.205
L199.504 -161.384
L198.252 -162.398
L197.687 -162.859
L196.777 -163.608
L195.903 -164.333
L195.302 -164.837
L194.151 -165.808
L193.827 -166.083
L192.428 -167.283
L192.353 -167.348
L190.878 -168.632
L190.735 -168.758
L189.403 -169.935
L189.071 -170.232
L187.929 -171.259
L187.435 -171.707
L186.454 -172.603
L185.827 -173.182
L184.979 -173.969
L184.246 -174.656
L183.505 -175.356
L182.69 -176.131
L182.03 -176.764
L181.16 -177.606
L180.555 -178.195
L179.654 -179.08
L179.08 -179.649
L178.173 -180.555
L177.606 -181.126
L176.715 -182.03
L176.131 -182.627
L175.28 -183.505
L174.656 -184.152
L173.867 -184.979
L173.182 -185.703
L172.476 -186.454
L171.707 -187.279
L171.106 -187.929
L170.232 -188.881
L169.757 -189.403
L168.758 -190.51
L168.428 -190.878
L167.283 -192.167
L167.119 -192.353
L165.83 -193.827
L165.808 -193.852
L164.559 -195.302
L164.333 -195.566
L163.307 -196.777
L162.859 -197.309
L162.072 -198.252
L161.384 -199.082
L160.854 -199.726
L159.909 -200.886
L159.654 -201.201
L158.472 -202.676
L158.435 -202.722
L157.306 -204.15
L156.96 -204.591
L156.155 -205.625
L155.485 -206.492
L155.019 -207.1
L154.011 -208.427
L153.899 -208.574
L152.796 -210.049
L152.536 -210.398
L151.705 -211.524
L151.061 -212.404
L150.629 -212.999
L149.587 -214.447
L149.568 -214.473
L148.521 -215.948
L148.112 -216.528
L147.485 -217.423
L146.637 -218.646
L146.464 -218.897
L145.457 -220.372
L145.162 -220.805
L144.46 -221.847
L143.688 -223.003
L143.476 -223.321
L142.506 -224.796
L142.213 -225.244
L141.546 -226.271
L140.738 -227.526
L140.598 -227.746
L139.662 -229.22
L139.264 -229.852
L138.736 -230.695
L137.822 -232.17
L137.789 -232.224
L136.919 -233.644
L136.314 -234.64
L136.025 -235.119
L135.144 -236.594
L134.84 -237.104
L134.269 -238.068
L133.408 -239.543
L133.365 -239.616
L132.554 -241.018
L131.89 -242.177
L131.71 -242.493
L130.877 -243.967
L130.415 -244.789
L130.051 -245.442
L129.237 -246.917
L128.941 -247.454
L128.428 -248.391
L127.631 -249.866
L127.466 -250.171
L126.84 -251.341
L126.059 -252.815
L125.991 -252.944
L125.285 -254.29
L124.52 -255.765
L124.517 -255.772
L123.763 -257.24
L123.042 -258.658
L123.013 -258.714
L122.272 -260.189
L121.567 -261.603
L121.537 -261.664
L120.81 -263.138
L120.093 -264.609
L120.091 -264.613
L119.378 -266.088
L118.673 -267.562
L118.618 -267.677
L117.973 -269.037
L117.282 -270.512
L117.143 -270.809
L116.596 -271.987
L115.919 -273.461
L115.668 -274.006
L115.244 -274.936
L114.58 -276.411
L114.194 -277.27
L113.918 -277.885
L113.266 -279.36
L112.719 -280.603
L112.617 -280.835
L111.976 -282.309
L111.341 -283.784
L111.244 -284.008
L110.709 -285.259
L110.087 -286.733
L109.77 -287.484
L109.465 -288.208
L108.853 -289.683
L108.295 -291.034
L108.244 -291.158
L107.641 -292.632
L107.045 -294.107
L106.82 -294.661
L106.45 -295.582
L105.864 -297.056
L105.346 -298.366
L105.28 -298.531
L104.702 -300.006
L104.131 -301.48
L103.871 -302.151
L103.56 -302.955
L102.999 -304.43
L102.44 -305.905
L102.396 -306.019
L101.884 -307.379
L101.336 -308.854
L100.921 -309.97
L100.788 -310.329
L100.248 -311.803
L99.7127 -313.278
L99.4467 -314.008
L99.1768 -314.753
L98.65 -316.227
L98.1264 -317.702
L97.972 -318.135
L97.603 -319.177
L97.0889 -320.652
L96.5762 -322.126
L96.4973 -322.352
L96.0651 -323.601
L95.5627 -325.076
L95.0608 -326.55
L95.0227 -326.662
L94.5613 -328.025
L94.07 -329.5
L93.5788 -330.974
L93.548 -331.067
L93.0901 -332.449
L92.6095 -333.924
L92.1291 -335.399
L92.0733 -335.569
L91.6503 -336.873
L91.1798 -338.348
L90.7101 -339.823
L90.5986 -340.171
L90.2406 -341.297
L89.7796 -342.772
L89.3206 -344.247
L89.1239 -344.875
L88.8599 -345.721
L88.4077 -347.196
L87.9589 -348.671
L87.6492 -349.683
L87.5076 -350.146
L87.0631 -351.62
L86.6238 -353.095
L86.1831 -354.57
L86.1745 -354.598
L85.7449 -356.044
L85.3142 -357.519
L84.8844 -358.994
L84.6998 -359.623
L84.4527 -360.468
L84.029 -361.943
L83.6091 -363.418
L83.2251 -364.759
L83.1866 -364.893
L82.768 -366.367
L82.3562 -367.842
L81.945 -369.317
L81.7504 -370.009
L81.5314 -370.791
L81.1254 -372.266
L80.7235 -373.741
L80.32 -375.215
L80.2757 -375.376
L79.9171 -376.69
L79.522 -378.165
L79.1291 -379.64
L78.801 -380.861
L78.7329 -381.114
L78.3413 -382.589
L77.9558 -384.064
L77.5711 -385.538
L77.3263 -386.469
L77.1831 -387.013
L76.8015 -388.488
L76.4249 -389.962
L76.0483 -391.437
L75.8516 -392.2
L75.6686 -392.912
L75.2959 -394.387
L74.9278 -395.861
L74.5591 -397.336
L74.3769 -398.058
L74.1875 -398.811
L73.8229 -400.285
L73.4628 -401.76" id="C1_0_b63e51ad3c"/>
    </defs>
    <g clip-path="url(#p9a4adf5a13)">
     <use style="fill:none;stroke:#000080;" x="0.0" xlink:href="#C1_0_b63e51ad3c" y="432.0"/>
    </g>
   </g>
   <g id="line2d_1">
    <path clip-path="url(#p9a4adf5a13)" d="
M193.104 101.393
L292.314 159.099
L197.967 47.6946
L271.219 310.624
L276.872 95.5405
L320.735 326.522
L309.547 153.111
L241.429 41.3407
L160.412 86.1366
L239.88 278.065
L248.255 66.559
L281.504 305.246
L348.334 209.335
L286.479 192.635
L204.095 187.466
L298.405 319.742
L199.402 172.448
L325.849 255.373
L150.277 190.211
L214.127 129.816
L317.943 259.288
L373.421 210.548
L282.631 184.815
L390.938 99.1865
L203.054 46.3399
L358.272 88.8263
L297.114 165.316
L398.837 234.599
L352.913 327.274
L390.275 193.218
L267.135 188.15
L254.229 142.735
L273.171 104.281
L89.2893 42.3065
L298.876 70.8278
L227.651 234.639
L213.402 144.955
L257.123 49.1885
L194.553 170.937
L186.043 156.393
L401.76 174.757
L125.114 89.9864
L141.923 156.649
L344.319 188.259
L375.48 315.149
L230.665 205.177
L177.61 242.414
L299.335 76.9115
L236.713 105.152
L273.603 79.7304
L290.223 46.9789
L371.584 149.547
L352.396 95.0762
L268.419 109.095
L349.224 316.918
L315.768 301.013
L98.7847 97.2075
L399.061 193.672
L167.617 213.9
L269.91 84.4394" style="fill:none;"/>
    <defs>
     <path d="
M0 3
C0.795609 3 1.55874 2.6839 2.12132 2.12132
C2.6839 1.55874 3 0.795609 3 0
C3 -0.795609 2.6839 -1.55874 2.12132 -2.12132
C1.55874 -2.6839 0.795609 -3 0 -3
C-0.795609 -3 -1.55874 -2.6839 -2.12132 -2.12132
C-2.6839 -1.55874 -3 -0.795609 -3 0
C-3 0.795609 -2.6839 1.55874 -2.12132 2.12132
C-1.55874 2.6839 -0.795609 3 0 3
z
" id="mf1e9a9e4ae" style="stroke:#000000;stroke-width:0.5;"/>
    </defs>
    <g clip-path="url(#p9a4adf5a13)">
     <use style="fill:#0000ff;stroke:#000000;stroke-width:0.5;" x="193.103841644" xlink:href="#mf1e9a9e4ae" y="101.393184628"/>
     <use style="fill:#0000ff;stroke:#000000;stroke-width:0.5;" x="292.313614983" xlink:href="#mf1e9a9e4ae" y="159.098515963"/>
     <use style="fill:#0000ff;stroke:#000000;stroke-width:0.5;" x="197.967270264" xlink:href="#mf1e9a9e4ae" y="47.6946457749"/>
     <use style="fill:#0000ff;stroke:#000000;stroke-width:0.5;" x="271.219241267" xlink:href="#mf1e9a9e4ae" y="310.6244931"/>
     <use style="fill:#0000ff;stroke:#000000;stroke-width:0.5;" x="276.872005459" xlink:href="#mf1e9a9e4ae" y="95.5405471445"/>
     <use style="fill:#0000ff;stroke:#000000;stroke-width:0.5;" x="320.734687483" xlink:href="#mf1e9a9e4ae" y="326.522258391"/>
     <use style="fill:#0000ff;stroke:#000000;stroke-width:0.5;" x="309.546608317" xlink:href="#mf1e9a9e4ae" y="153.111305521"/>
     <use style="fill:#0000ff;stroke:#000000;stroke-width:0.5;" x="241.429384358" xlink:href="#mf1e9a9e4ae" y="41.3407080826"/>
     <use style="fill:#0000ff;stroke:#000000;stroke-width:0.5;" x="160.411972905" xlink:href="#mf1e9a9e4ae" y="86.1365792341"/>
     <use style="fill:#0000ff;stroke:#000000;stroke-width:0.5;" x="239.879698424" xlink:href="#mf1e9a9e4ae" y="278.064680552"/>
     <use style="fill:#0000ff;stroke:#000000;stroke-width:0.5;" x="248.255181986" xlink:href="#mf1e9a9e4ae" y="66.5590394673"/>
     <use style="fill:#0000ff;stroke:#000000;stroke-width:0.5;" x="281.503500019" xlink:href="#mf1e9a9e4ae" y="305.245888135"/>
     <use style="fill:#0000ff;stroke:#000000;stroke-width:0.5;" x="348.334045224" xlink:href="#mf1e9a9e4ae" y="209.334667882"/>
     <use style="fill:#0000ff;stroke:#000000;stroke-width:0.5;" x="286.478730013" xlink:href="#mf1e9a9e4ae" y="192.634946936"/>
     <use style="fill:#0000ff;stroke:#000000;stroke-width:0.5;" x="204.095332656" xlink:href="#mf1e9a9e4ae" y="187.466087004"/>
     <use style="fill:#0000ff;stroke:#000000;stroke-width:0.5;" x="298.405338794" xlink:href="#mf1e9a9e4ae" y="319.742171526"/>
     <use style="fill:#0000ff;stroke:#000000;stroke-width:0.5;" x="199.402116921" xlink:href="#mf1e9a9e4ae" y="172.448260611"/>
     <use style="fill:#0000ff;stroke:#000000;stroke-width:0.5;" x="325.848819131" xlink:href="#mf1e9a9e4ae" y="255.372837054"/>
     <use style="fill:#0000ff;stroke:#000000;stroke-width:0.5;" x="150.277137093" xlink:href="#mf1e9a9e4ae" y="190.211298023"/>
     <use style="fill:#0000ff;stroke:#000000;stroke-width:0.5;" x="214.12663224" xlink:href="#mf1e9a9e4ae" y="129.81640235"/>
     <use style="fill:#0000ff;stroke:#000000;stroke-width:0.5;" x="317.943011549" xlink:href="#mf1e9a9e4ae" y="259.288240846"/>
     <use style="fill:#0000ff;stroke:#000000;stroke-width:0.5;" x="373.420999349" xlink:href="#mf1e9a9e4ae" y="210.547514735"/>
     <use style="fill:#0000ff;stroke:#000000;stroke-width:0.5;" x="282.631121172" xlink:href="#mf1e9a9e4ae" y="184.814852415"/>
     <use style="fill:#0000ff;stroke:#000000;stroke-width:0.5;" x="390.937747354" xlink:href="#mf1e9a9e4ae" y="99.1865319292"/>
     <use style="fill:#0000ff;stroke:#000000;stroke-width:0.5;" x="203.053506678" xlink:href="#mf1e9a9e4ae" y="46.3399383037"/>
     <use style="fill:#0000ff;stroke:#000000;stroke-width:0.5;" x="358.271785893" xlink:href="#mf1e9a9e4ae" y="88.8263161188"/>
     <use style="fill:#0000ff;stroke:#000000;stroke-width:0.5;" x="297.113974746" xlink:href="#mf1e9a9e4ae" y="165.315566263"/>
     <use style="fill:#0000ff;stroke:#000000;stroke-width:0.5;" x="398.837249333" xlink:href="#mf1e9a9e4ae" y="234.599213637"/>
     <use style="fill:#0000ff;stroke:#000000;stroke-width:0.5;" x="352.912600244" xlink:href="#mf1e9a9e4ae" y="327.273781471"/>
     <use style="fill:#0000ff;stroke:#000000;stroke-width:0.5;" x="390.274781825" xlink:href="#mf1e9a9e4ae" y="193.218029173"/>
     <use style="fill:#0000ff;stroke:#000000;stroke-width:0.5;" x="267.134806089" xlink:href="#mf1e9a9e4ae" y="188.149691217"/>
     <use style="fill:#0000ff;stroke:#000000;stroke-width:0.5;" x="254.228527572" xlink:href="#mf1e9a9e4ae" y="142.734622969"/>
     <use style="fill:#0000ff;stroke:#000000;stroke-width:0.5;" x="273.171138082" xlink:href="#mf1e9a9e4ae" y="104.280591369"/>
     <use style="fill:#0000ff;stroke:#000000;stroke-width:0.5;" x="89.2893380171" xlink:href="#mf1e9a9e4ae" y="42.306517291"/>
     <use style="fill:#0000ff;stroke:#000000;stroke-width:0.5;" x="298.875822674" xlink:href="#mf1e9a9e4ae" y="70.8278028572"/>
     <use style="fill:#0000ff;stroke:#000000;stroke-width:0.5;" x="227.651324664" xlink:href="#mf1e9a9e4ae" y="234.639407625"/>
     <use style="fill:#0000ff;stroke:#000000;stroke-width:0.5;" x="213.402072151" xlink:href="#mf1e9a9e4ae" y="144.954980676"/>
     <use style="fill:#0000ff;stroke:#000000;stroke-width:0.5;" x="257.123390755" xlink:href="#mf1e9a9e4ae" y="49.1884810659"/>
     <use style="fill:#0000ff;stroke:#000000;stroke-width:0.5;" x="194.552695685" xlink:href="#mf1e9a9e4ae" y="170.937173643"/>
     <use style="fill:#0000ff;stroke:#000000;stroke-width:0.5;" x="186.042666594" xlink:href="#mf1e9a9e4ae" y="156.392914662"/>
     <use style="fill:#0000ff;stroke:#000000;stroke-width:0.5;" x="401.76" xlink:href="#mf1e9a9e4ae" y="174.756833611"/>
     <use style="fill:#0000ff;stroke:#000000;stroke-width:0.5;" x="125.113638623" xlink:href="#mf1e9a9e4ae" y="89.986443902"/>
     <use style="fill:#0000ff;stroke:#000000;stroke-width:0.5;" x="141.923340192" xlink:href="#mf1e9a9e4ae" y="156.648641304"/>
     <use style="fill:#0000ff;stroke:#000000;stroke-width:0.5;" x="344.318950418" xlink:href="#mf1e9a9e4ae" y="188.259070268"/>
     <use style="fill:#0000ff;stroke:#000000;stroke-width:0.5;" x="375.47959488" xlink:href="#mf1e9a9e4ae" y="315.149198262"/>
     <use style="fill:#0000ff;stroke:#000000;stroke-width:0.5;" x="230.664642576" xlink:href="#mf1e9a9e4ae" y="205.176901951"/>
     <use style="fill:#0000ff;stroke:#000000;stroke-width:0.5;" x="177.609897517" xlink:href="#mf1e9a9e4ae" y="242.41356619"/>
     <use style="fill:#0000ff;stroke:#000000;stroke-width:0.5;" x="299.334668428" xlink:href="#mf1e9a9e4ae" y="76.9114647656"/>
     <use style="fill:#0000ff;stroke:#000000;stroke-width:0.5;" x="236.713312376" xlink:href="#mf1e9a9e4ae" y="105.152313006"/>
     <use style="fill:#0000ff;stroke:#000000;stroke-width:0.5;" x="273.603187142" xlink:href="#mf1e9a9e4ae" y="79.7304171428"/>
     <use style="fill:#0000ff;stroke:#000000;stroke-width:0.5;" x="290.222531795" xlink:href="#mf1e9a9e4ae" y="46.9788601657"/>
     <use style="fill:#0000ff;stroke:#000000;stroke-width:0.5;" x="371.583991642" xlink:href="#mf1e9a9e4ae" y="149.547454259"/>
     <use style="fill:#0000ff;stroke:#000000;stroke-width:0.5;" x="352.395959789" xlink:href="#mf1e9a9e4ae" y="95.0762274793"/>
     <use style="fill:#0000ff;stroke:#000000;stroke-width:0.5;" x="268.419003091" xlink:href="#mf1e9a9e4ae" y="109.095255836"/>
     <use style="fill:#0000ff;stroke:#000000;stroke-width:0.5;" x="349.223668635" xlink:href="#mf1e9a9e4ae" y="316.917715131"/>
     <use style="fill:#0000ff;stroke:#000000;stroke-width:0.5;" x="315.768144258" xlink:href="#mf1e9a9e4ae" y="301.012676495"/>
     <use style="fill:#0000ff;stroke:#000000;stroke-width:0.5;" x="98.7847225077" xlink:href="#mf1e9a9e4ae" y="97.2074633498"/>
     <use style="fill:#0000ff;stroke:#000000;stroke-width:0.5;" x="399.060834835" xlink:href="#mf1e9a9e4ae" y="193.671513244"/>
     <use style="fill:#0000ff;stroke:#000000;stroke-width:0.5;" x="167.616947097" xlink:href="#mf1e9a9e4ae" y="213.90001024"/>
     <use style="fill:#0000ff;stroke:#000000;stroke-width:0.5;" x="269.909510354" xlink:href="#mf1e9a9e4ae" y="84.439432011"/>
    </g>
   </g>
   <g id="line2d_2">
    <path clip-path="url(#p9a4adf5a13)" d="
M35.7594 324.619
L65.0258 171.952
L113.635 259.244
L380.885 354.459
L271.161 394.575
L84.4515 155.454
L233.968 309.969
L230.942 330.18
L142.327 298.51
L56.4188 322.964
L366.426 351.431
L201.775 291.14
L80.4908 213.565
L150.606 223.396
L88.128 181.08
L163.907 280.836
L54.858 35.2843
L269.98 336.838
L56.2692 159.66
L147.658 309.034
L309.871 341.865
L145.026 314.473
L203.841 281.641
L58.0633 237.771
L141.02 293.517
L137.337 240.863
L47.8144 52.4992
L62.0716 308.169
L172.426 349.006
L34.56 294.63
L111.451 205.91
L226.673 339.371
L134.631 282.576
L48.5809 327.713
L194.54 331.917
L309.123 330.804
L97.8045 140.676
L151.87 235.807
L168.365 368.431" style="fill:none;"/>
    <defs>
     <path d="
M-3 3
L3 -3
M-3 -3
L3 3" id="m562aef8efe" style="stroke:#ff0000;stroke-width:0.5;"/>
    </defs>
    <g clip-path="url(#p9a4adf5a13)">
     <use style="fill:#ff0000;stroke:#ff0000;stroke-width:0.5;" x="35.7593944197" xlink:href="#m562aef8efe" y="324.619106564"/>
     <use style="fill:#ff0000;stroke:#ff0000;stroke-width:0.5;" x="65.0257916972" xlink:href="#m562aef8efe" y="171.951895798"/>
     <use style="fill:#ff0000;stroke:#ff0000;stroke-width:0.5;" x="113.634905641" xlink:href="#m562aef8efe" y="259.244422731"/>
     <use style="fill:#ff0000;stroke:#ff0000;stroke-width:0.5;" x="380.885032277" xlink:href="#m562aef8efe" y="354.459292507"/>
     <use style="fill:#ff0000;stroke:#ff0000;stroke-width:0.5;" x="271.160888566" xlink:href="#m562aef8efe" y="394.574564693"/>
     <use style="fill:#ff0000;stroke:#ff0000;stroke-width:0.5;" x="84.4514527577" xlink:href="#m562aef8efe" y="155.454178391"/>
     <use style="fill:#ff0000;stroke:#ff0000;stroke-width:0.5;" x="233.967740969" xlink:href="#m562aef8efe" y="309.968920904"/>
     <use style="fill:#ff0000;stroke:#ff0000;stroke-width:0.5;" x="230.9423757" xlink:href="#m562aef8efe" y="330.179861957"/>
     <use style="fill:#ff0000;stroke:#ff0000;stroke-width:0.5;" x="142.326642034" xlink:href="#m562aef8efe" y="298.509946634"/>
     <use style="fill:#ff0000;stroke:#ff0000;stroke-width:0.5;" x="56.4188257812" xlink:href="#m562aef8efe" y="322.963704421"/>
     <use style="fill:#ff0000;stroke:#ff0000;stroke-width:0.5;" x="366.42647698" xlink:href="#m562aef8efe" y="351.430957031"/>
     <use style="fill:#ff0000;stroke:#ff0000;stroke-width:0.5;" x="201.775326838" xlink:href="#m562aef8efe" y="291.140075134"/>
     <use style="fill:#ff0000;stroke:#ff0000;stroke-width:0.5;" x="80.4907991815" xlink:href="#m562aef8efe" y="213.564526017"/>
     <use style="fill:#ff0000;stroke:#ff0000;stroke-width:0.5;" x="150.60647412" xlink:href="#m562aef8efe" y="223.396260044"/>
     <use style="fill:#ff0000;stroke:#ff0000;stroke-width:0.5;" x="88.1280013128" xlink:href="#m562aef8efe" y="181.080444569"/>
     <use style="fill:#ff0000;stroke:#ff0000;stroke-width:0.5;" x="163.906938965" xlink:href="#m562aef8efe" y="280.836133369"/>
     <use style="fill:#ff0000;stroke:#ff0000;stroke-width:0.5;" x="54.8580022658" xlink:href="#m562aef8efe" y="35.2842517476"/>
     <use style="fill:#ff0000;stroke:#ff0000;stroke-width:0.5;" x="269.979824881" xlink:href="#m562aef8efe" y="336.837779428"/>
     <use style="fill:#ff0000;stroke:#ff0000;stroke-width:0.5;" x="56.2692440461" xlink:href="#m562aef8efe" y="159.659855532"/>
     <use style="fill:#ff0000;stroke:#ff0000;stroke-width:0.5;" x="147.657783863" xlink:href="#m562aef8efe" y="309.033586591"/>
     <use style="fill:#ff0000;stroke:#ff0000;stroke-width:0.5;" x="309.871342357" xlink:href="#m562aef8efe" y="341.864863082"/>
     <use style="fill:#ff0000;stroke:#ff0000;stroke-width:0.5;" x="145.026409766" xlink:href="#m562aef8efe" y="314.473446947"/>
     <use style="fill:#ff0000;stroke:#ff0000;stroke-width:0.5;" x="203.840926385" xlink:href="#m562aef8efe" y="281.640826334"/>
     <use style="fill:#ff0000;stroke:#ff0000;stroke-width:0.5;" x="58.0632901951" xlink:href="#m562aef8efe" y="237.771211513"/>
     <use style="fill:#ff0000;stroke:#ff0000;stroke-width:0.5;" x="141.019860527" xlink:href="#m562aef8efe" y="293.516719229"/>
     <use style="fill:#ff0000;stroke:#ff0000;stroke-width:0.5;" x="137.336657803" xlink:href="#m562aef8efe" y="240.862699656"/>
     <use style="fill:#ff0000;stroke:#ff0000;stroke-width:0.5;" x="47.814422892" xlink:href="#m562aef8efe" y="52.4991969549"/>
     <use style="fill:#ff0000;stroke:#ff0000;stroke-width:0.5;" x="62.0716463013" xlink:href="#m562aef8efe" y="308.16926424"/>
     <use style="fill:#ff0000;stroke:#ff0000;stroke-width:0.5;" x="172.426349079" xlink:href="#m562aef8efe" y="349.005718424"/>
     <use style="fill:#ff0000;stroke:#ff0000;stroke-width:0.5;" x="34.56" xlink:href="#m562aef8efe" y="294.630202421"/>
     <use style="fill:#ff0000;stroke:#ff0000;stroke-width:0.5;" x="111.450644625" xlink:href="#m562aef8efe" y="205.909875452"/>
     <use style="fill:#ff0000;stroke:#ff0000;stroke-width:0.5;" x="226.673317614" xlink:href="#m562aef8efe" y="339.370989987"/>
     <use style="fill:#ff0000;stroke:#ff0000;stroke-width:0.5;" x="134.630834813" xlink:href="#m562aef8efe" y="282.576497331"/>
     <use style="fill:#ff0000;stroke:#ff0000;stroke-width:0.5;" x="48.5809003202" xlink:href="#m562aef8efe" y="327.712873598"/>
     <use style="fill:#ff0000;stroke:#ff0000;stroke-width:0.5;" x="194.540435622" xlink:href="#m562aef8efe" y="331.91683031"/>
     <use style="fill:#ff0000;stroke:#ff0000;stroke-width:0.5;" x="309.123499879" xlink:href="#m562aef8efe" y="330.803851556"/>
     <use style="fill:#ff0000;stroke:#ff0000;stroke-width:0.5;" x="97.8044935199" xlink:href="#m562aef8efe" y="140.675581123"/>
     <use style="fill:#ff0000;stroke:#ff0000;stroke-width:0.5;" x="151.869740931" xlink:href="#m562aef8efe" y="235.807225934"/>
     <use style="fill:#ff0000;stroke:#ff0000;stroke-width:0.5;" x="168.365060104" xlink:href="#m562aef8efe" y="368.430530363"/>
    </g>
   </g>
   <g id="patch_3">
    <path d="
M34.56 30.24
L401.76 30.24" style="fill:none;stroke:#000000;stroke-linecap:square;stroke-linejoin:miter;"/>
   </g>
   <g id="patch_4">
    <path d="
M401.76 397.44
L401.76 30.24" style="fill:none;stroke:#000000;stroke-linecap:square;stroke-linejoin:miter;"/>
   </g>
   <g id="patch_5">
    <path d="
M34.56 397.44
L401.76 397.44" style="fill:none;stroke:#000000;stroke-linecap:square;stroke-linejoin:miter;"/>
   </g>
   <g id="patch_6">
    <path d="
M34.56 397.44
L34.56 30.24" style="fill:none;stroke:#000000;stroke-linecap:square;stroke-linejoin:miter;"/>
   </g>
   <g id="matplotlib.axis_1">
    <g id="xtick_1">
     <g id="text_1">
      <!-- 30 -->
      <defs>
       <path d="
M40.5781 39.3125
Q47.6562 37.7969 51.625 33
Q55.6094 28.2188 55.6094 21.1875
Q55.6094 10.4062 48.1875 4.48438
Q40.7656 -1.42188 27.0938 -1.42188
Q22.5156 -1.42188 17.6562 -0.515625
Q12.7969 0.390625 7.625 2.20312
L7.625 11.7188
Q11.7188 9.32812 16.5938 8.10938
Q21.4844 6.89062 26.8125 6.89062
Q36.0781 6.89062 40.9375 10.5469
Q45.7969 14.2031 45.7969 21.1875
Q45.7969 27.6406 41.2812 31.2656
Q36.7656 34.9062 28.7188 34.9062
L20.2188 34.9062
L20.2188 43.0156
L29.1094 43.0156
Q36.375 43.0156 40.2344 45.9219
Q44.0938 48.8281 44.0938 54.2969
Q44.0938 59.9062 40.1094 62.9062
Q36.1406 65.9219 28.7188 65.9219
Q24.6562 65.9219 20.0156 65.0312
Q15.375 64.1562 9.8125 62.3125
L9.8125 71.0938
Q15.4375 72.6562 20.3438 73.4375
Q25.25 74.2188 29.5938 74.2188
Q40.8281 74.2188 47.3594 69.1094
Q53.9062 64.0156 53.9062 55.3281
Q53.9062 49.2656 50.4375 45.0938
Q46.9688 40.9219 40.5781 39.3125" id="BitstreamVeraSans-Roman-33"/>
       <path d="
M31.7812 66.4062
Q24.1719 66.4062 20.3281 58.9062
Q16.5 51.4219 16.5 36.375
Q16.5 21.3906 20.3281 13.8906
Q24.1719 6.39062 31.7812 6.39062
Q39.4531 6.39062 43.2812 13.8906
Q47.125 21.3906 47.125 36.375
Q47.125 51.4219 43.2812 58.9062
Q39.4531 66.4062 31.7812 66.4062
M31.7812 74.2188
Q44.0469 74.2188 50.5156 64.5156
Q56.9844 54.8281 56.9844 36.375
Q56.9844 17.9688 50.5156 8.26562
Q44.0469 -1.42188 31.7812 -1.42188
Q19.5312 -1.42188 13.0625 8.26562
Q6.59375 17.9688 6.59375 36.375
Q6.59375 54.8281 13.0625 64.5156
Q19.5312 74.2188 31.7812 74.2188" id="BitstreamVeraSans-Roman-30"/>
      </defs>
      <g transform="translate(27.4713502695 410.558125)scale(0.12 -0.12)">
       <use xlink:href="#BitstreamVeraSans-Roman-33"/>
       <use x="63.623046875" xlink:href="#BitstreamVeraSans-Roman-30"/>
      </g>
     </g>
    </g>
    <g id="xtick_2">
     <g id="line2d_3">
      <defs>
       <path d="
M0 0
L0 -4" id="m93b0483c22" style="stroke:#000000;stroke-width:0.5;"/>
      </defs>
      <g>
       <use style="stroke:#000000;stroke-width:0.5;" x="86.881210681" xlink:href="#m93b0483c22" y="397.44"/>
      </g>
     </g>
     <g id="line2d_4">
      <defs>
       <path d="
M0 0
L0 4" id="m741efc42ff" style="stroke:#000000;stroke-width:0.5;"/>
      </defs>
      <g>
       <use style="stroke:#000000;stroke-width:0.5;" x="86.881210681" xlink:href="#m741efc42ff" y="30.24"/>
      </g>
     </g>
     <g id="text_2">
      <!-- 40 -->
      <defs>
       <path d="
M37.7969 64.3125
L12.8906 25.3906
L37.7969 25.3906
z

M35.2031 72.9062
L47.6094 72.9062
L47.6094 25.3906
L58.0156 25.3906
L58.0156 17.1875
L47.6094 17.1875
L47.6094 0
L37.7969 0
L37.7969 17.1875
L4.89062 17.1875
L4.89062 26.7031
z
" id="BitstreamVeraSans-Roman-34"/>
      </defs>
      <g transform="translate(79.938085681 410.558125)scale(0.12 -0.12)">
       <use xlink:href="#BitstreamVeraSans-Roman-34"/>
       <use x="63.623046875" xlink:href="#BitstreamVeraSans-Roman-30"/>
      </g>
     </g>
    </g>
    <g id="xtick_3">
     <g id="line2d_5">
      <g>
       <use style="stroke:#000000;stroke-width:0.5;" x="139.512008593" xlink:href="#m93b0483c22" y="397.44"/>
      </g>
     </g>
     <g id="line2d_6">
      <g>
       <use style="stroke:#000000;stroke-width:0.5;" x="139.512008593" xlink:href="#m741efc42ff" y="30.24"/>
      </g>
     </g>
     <g id="text_3">
      <!-- 50 -->
      <defs>
       <path d="
M10.7969 72.9062
L49.5156 72.9062
L49.5156 64.5938
L19.8281 64.5938
L19.8281 46.7344
Q21.9688 47.4688 24.1094 47.8281
Q26.2656 48.1875 28.4219 48.1875
Q40.625 48.1875 47.75 41.5
Q54.8906 34.8125 54.8906 23.3906
Q54.8906 11.625 47.5625 5.09375
Q40.2344 -1.42188 26.9062 -1.42188
Q22.3125 -1.42188 17.5469 -0.640625
Q12.7969 0.140625 7.71875 1.70312
L7.71875 11.625
Q12.1094 9.23438 16.7969 8.0625
Q21.4844 6.89062 26.7031 6.89062
Q35.1562 6.89062 40.0781 11.3281
Q45.0156 15.7656 45.0156 23.3906
Q45.0156 31 40.0781 35.4375
Q35.1562 39.8906 26.7031 39.8906
Q22.75 39.8906 18.8125 39.0156
Q14.8906 38.1406 10.7969 36.2812
z
" id="BitstreamVeraSans-Roman-35"/>
      </defs>
      <g transform="translate(132.738571093 410.558125)scale(0.12 -0.12)">
       <use xlink:href="#BitstreamVeraSans-Roman-35"/>
       <use x="63.623046875" xlink:href="#BitstreamVeraSans-Roman-30"/>
      </g>
     </g>
    </g>
    <g id="xtick_4">
     <g id="line2d_7">
      <g>
       <use style="stroke:#000000;stroke-width:0.5;" x="192.142806504" xlink:href="#m93b0483c22" y="397.44"/>
      </g>
     </g>
     <g id="line2d_8">
      <g>
       <use style="stroke:#000000;stroke-width:0.5;" x="192.142806504" xlink:href="#m741efc42ff" y="30.24"/>
      </g>
     </g>
     <g id="text_4">
      <!-- 60 -->
      <defs>
       <path d="
M33.0156 40.375
Q26.375 40.375 22.4844 35.8281
Q18.6094 31.2969 18.6094 23.3906
Q18.6094 15.5312 22.4844 10.9531
Q26.375 6.39062 33.0156 6.39062
Q39.6562 6.39062 43.5312 10.9531
Q47.4062 15.5312 47.4062 23.3906
Q47.4062 31.2969 43.5312 35.8281
Q39.6562 40.375 33.0156 40.375
M52.5938 71.2969
L52.5938 62.3125
Q48.875 64.0625 45.0938 64.9844
Q41.3125 65.9219 37.5938 65.9219
Q27.8281 65.9219 22.6719 59.3281
Q17.5312 52.7344 16.7969 39.4062
Q19.6719 43.6562 24.0156 45.9219
Q28.375 48.1875 33.5938 48.1875
Q44.5781 48.1875 50.9531 41.5156
Q57.3281 34.8594 57.3281 23.3906
Q57.3281 12.1562 50.6875 5.35938
Q44.0469 -1.42188 33.0156 -1.42188
Q20.3594 -1.42188 13.6719 8.26562
Q6.98438 17.9688 6.98438 36.375
Q6.98438 53.6562 15.1875 63.9375
Q23.3906 74.2188 37.2031 74.2188
Q40.9219 74.2188 44.7031 73.4844
Q48.4844 72.75 52.5938 71.2969" id="BitstreamVeraSans-Roman-36"/>
      </defs>
      <g transform="translate(185.325306504 410.558125)scale(0.12 -0.12)">
       <use xlink:href="#BitstreamVeraSans-Roman-36"/>
       <use x="63.623046875" xlink:href="#BitstreamVeraSans-Roman-30"/>
      </g>
     </g>
    </g>
    <g id="xtick_5">
     <g id="line2d_9">
      <g>
       <use style="stroke:#000000;stroke-width:0.5;" x="244.773604416" xlink:href="#m93b0483c22" y="397.44"/>
      </g>
     </g>
     <g id="line2d_10">
      <g>
       <use style="stroke:#000000;stroke-width:0.5;" x="244.773604416" xlink:href="#m741efc42ff" y="30.24"/>
      </g>
     </g>
     <g id="text_5">
      <!-- 70 -->
      <defs>
       <path d="
M8.20312 72.9062
L55.0781 72.9062
L55.0781 68.7031
L28.6094 0
L18.3125 0
L43.2188 64.5938
L8.20312 64.5938
z
" id="BitstreamVeraSans-Roman-37"/>
      </defs>
      <g transform="translate(238.029229416 410.558125)scale(0.12 -0.12)">
       <use xlink:href="#BitstreamVeraSans-Roman-37"/>
       <use x="63.623046875" xlink:href="#BitstreamVeraSans-Roman-30"/>
      </g>
     </g>
    </g>
    <g id="xtick_6">
     <g id="line2d_11">
      <g>
       <use style="stroke:#000000;stroke-width:0.5;" x="297.404402327" xlink:href="#m93b0483c22" y="397.44"/>
      </g>
     </g>
     <g id="line2d_12">
      <g>
       <use style="stroke:#000000;stroke-width:0.5;" x="297.404402327" xlink:href="#m741efc42ff" y="30.24"/>
      </g>
     </g>
     <g id="text_6">
      <!-- 80 -->
      <defs>
       <path d="
M31.7812 34.625
Q24.75 34.625 20.7188 30.8594
Q16.7031 27.0938 16.7031 20.5156
Q16.7031 13.9219 20.7188 10.1562
Q24.75 6.39062 31.7812 6.39062
Q38.8125 6.39062 42.8594 10.1719
Q46.9219 13.9688 46.9219 20.5156
Q46.9219 27.0938 42.8906 30.8594
Q38.875 34.625 31.7812 34.625
M21.9219 38.8125
Q15.5781 40.375 12.0312 44.7188
Q8.5 49.0781 8.5 55.3281
Q8.5 64.0625 14.7188 69.1406
Q20.9531 74.2188 31.7812 74.2188
Q42.6719 74.2188 48.875 69.1406
Q55.0781 64.0625 55.0781 55.3281
Q55.0781 49.0781 51.5312 44.7188
Q48 40.375 41.7031 38.8125
Q48.8281 37.1562 52.7969 32.3125
Q56.7812 27.4844 56.7812 20.5156
Q56.7812 9.90625 50.3125 4.23438
Q43.8438 -1.42188 31.7812 -1.42188
Q19.7344 -1.42188 13.25 4.23438
Q6.78125 9.90625 6.78125 20.5156
Q6.78125 27.4844 10.7812 32.3125
Q14.7969 37.1562 21.9219 38.8125
M18.3125 54.3906
Q18.3125 48.7344 21.8438 45.5625
Q25.3906 42.3906 31.7812 42.3906
Q38.1406 42.3906 41.7188 45.5625
Q45.3125 48.7344 45.3125 54.3906
Q45.3125 60.0625 41.7188 63.2344
Q38.1406 66.4062 31.7812 66.4062
Q25.3906 66.4062 21.8438 63.2344
Q18.3125 60.0625 18.3125 54.3906" id="BitstreamVeraSans-Roman-38"/>
      </defs>
      <g transform="translate(290.574714827 410.558125)scale(0.12 -0.12)">
       <use xlink:href="#BitstreamVeraSans-Roman-38"/>
       <use x="63.623046875" xlink:href="#BitstreamVeraSans-Roman-30"/>
      </g>
     </g>
    </g>
    <g id="xtick_7">
     <g id="line2d_13">
      <g>
       <use style="stroke:#000000;stroke-width:0.5;" x="350.035200239" xlink:href="#m93b0483c22" y="397.44"/>
      </g>
     </g>
     <g id="line2d_14">
      <g>
       <use style="stroke:#000000;stroke-width:0.5;" x="350.035200239" xlink:href="#m741efc42ff" y="30.24"/>
      </g>
     </g>
     <g id="text_7">
      <!-- 90 -->
      <defs>
       <path d="
M10.9844 1.51562
L10.9844 10.5
Q14.7031 8.73438 18.5 7.8125
Q22.3125 6.89062 25.9844 6.89062
Q35.75 6.89062 40.8906 13.4531
Q46.0469 20.0156 46.7812 33.4062
Q43.9531 29.2031 39.5938 26.9531
Q35.25 24.7031 29.9844 24.7031
Q19.0469 24.7031 12.6719 31.3125
Q6.29688 37.9375 6.29688 49.4219
Q6.29688 60.6406 12.9375 67.4219
Q19.5781 74.2188 30.6094 74.2188
Q43.2656 74.2188 49.9219 64.5156
Q56.5938 54.8281 56.5938 36.375
Q56.5938 19.1406 48.4062 8.85938
Q40.2344 -1.42188 26.4219 -1.42188
Q22.7031 -1.42188 18.8906 -0.6875
Q15.0938 0.046875 10.9844 1.51562
M30.6094 32.4219
Q37.25 32.4219 41.125 36.9531
Q45.0156 41.5 45.0156 49.4219
Q45.0156 57.2812 41.125 61.8438
Q37.25 66.4062 30.6094 66.4062
Q23.9688 66.4062 20.0938 61.8438
Q16.2188 57.2812 16.2188 49.4219
Q16.2188 41.5 20.0938 36.9531
Q23.9688 32.4219 30.6094 32.4219" id="BitstreamVeraSans-Roman-39"/>
      </defs>
      <g transform="translate(343.176450239 410.558125)scale(0.12 -0.12)">
       <use xlink:href="#BitstreamVeraSans-Roman-39"/>
       <use x="63.623046875" xlink:href="#BitstreamVeraSans-Roman-30"/>
      </g>
     </g>
    </g>
   </g>
   <g id="matplotlib.axis_2">
    <g id="ytick_1">
     <g id="text_8">
      <!-- 30 -->
      <g transform="translate(17.001875 401.06083723)scale(0.12 -0.12)">
       <use xlink:href="#BitstreamVeraSans-Roman-33"/>
       <use x="63.623046875" xlink:href="#BitstreamVeraSans-Roman-30"/>
      </g>
     </g>
    </g>
    <g id="ytick_2">
     <g id="line2d_15">
      <defs>
       <path d="
M0 0
L4 0" id="m728421d6d4" style="stroke:#000000;stroke-width:0.5;"/>
      </defs>
      <g>
       <use style="stroke:#000000;stroke-width:0.5;" x="34.56" xlink:href="#m728421d6d4" y="345.118789319"/>
      </g>
     </g>
     <g id="line2d_16">
      <defs>
       <path d="
M0 0
L-4 0" id="mcb0005524f" style="stroke:#000000;stroke-width:0.5;"/>
      </defs>
      <g>
       <use style="stroke:#000000;stroke-width:0.5;" x="401.76" xlink:href="#mcb0005524f" y="345.118789319"/>
      </g>
     </g>
     <g id="text_9">
      <!-- 40 -->
      <g transform="translate(16.67375 348.430039319)scale(0.12 -0.12)">
       <use xlink:href="#BitstreamVeraSans-Roman-34"/>
       <use x="63.623046875" xlink:href="#BitstreamVeraSans-Roman-30"/>
      </g>
     </g>
    </g>
    <g id="ytick_3">
     <g id="line2d_17">
      <g>
       <use style="stroke:#000000;stroke-width:0.5;" x="34.56" xlink:href="#m728421d6d4" y="292.487991407"/>
      </g>
     </g>
     <g id="line2d_18">
      <g>
       <use style="stroke:#000000;stroke-width:0.5;" x="401.76" xlink:href="#mcb0005524f" y="292.487991407"/>
      </g>
     </g>
     <g id="text_10">
      <!-- 50 -->
      <g transform="translate(17.013125 295.799241407)scale(0.12 -0.12)">
       <use xlink:href="#BitstreamVeraSans-Roman-35"/>
       <use x="63.623046875" xlink:href="#BitstreamVeraSans-Roman-30"/>
      </g>
     </g>
    </g>
    <g id="ytick_4">
     <g id="line2d_19">
      <g>
       <use style="stroke:#000000;stroke-width:0.5;" x="34.56" xlink:href="#m728421d6d4" y="239.857193496"/>
      </g>
     </g>
     <g id="line2d_20">
      <g>
       <use style="stroke:#000000;stroke-width:0.5;" x="401.76" xlink:href="#mcb0005524f" y="239.857193496"/>
      </g>
     </g>
     <g id="text_11">
      <!-- 60 -->
      <g transform="translate(16.925 243.168443496)scale(0.12 -0.12)">
       <use xlink:href="#BitstreamVeraSans-Roman-36"/>
       <use x="63.623046875" xlink:href="#BitstreamVeraSans-Roman-30"/>
      </g>
     </g>
    </g>
    <g id="ytick_5">
     <g id="line2d_21">
      <g>
       <use style="stroke:#000000;stroke-width:0.5;" x="34.56" xlink:href="#m728421d6d4" y="187.226395584"/>
      </g>
     </g>
     <g id="line2d_22">
      <g>
       <use style="stroke:#000000;stroke-width:0.5;" x="401.76" xlink:href="#mcb0005524f" y="187.226395584"/>
      </g>
     </g>
     <g id="text_12">
      <!-- 70 -->
      <g transform="translate(17.07125 190.537645584)scale(0.12 -0.12)">
       <use xlink:href="#BitstreamVeraSans-Roman-37"/>
       <use x="63.623046875" xlink:href="#BitstreamVeraSans-Roman-30"/>
      </g>
     </g>
    </g>
    <g id="ytick_6">
     <g id="line2d_23">
      <g>
       <use style="stroke:#000000;stroke-width:0.5;" x="34.56" xlink:href="#m728421d6d4" y="134.595597673"/>
      </g>
     </g>
     <g id="line2d_24">
      <g>
       <use style="stroke:#000000;stroke-width:0.5;" x="401.76" xlink:href="#mcb0005524f" y="134.595597673"/>
      </g>
     </g>
     <g id="text_13">
      <!-- 80 -->
      <g transform="translate(16.900625 137.906847673)scale(0.12 -0.12)">
       <use xlink:href="#BitstreamVeraSans-Roman-38"/>
       <use x="63.623046875" xlink:href="#BitstreamVeraSans-Roman-30"/>
      </g>
     </g>
    </g>
    <g id="ytick_7">
     <g id="line2d_25">
      <g>
       <use style="stroke:#000000;stroke-width:0.5;" x="34.56" xlink:href="#m728421d6d4" y="81.9647997613"/>
      </g>
     </g>
     <g id="line2d_26">
      <g>
       <use style="stroke:#000000;stroke-width:0.5;" x="401.76" xlink:href="#mcb0005524f" y="81.9647997613"/>
      </g>
     </g>
     <g id="text_14">
      <!-- 90 -->
      <g transform="translate(16.8425 85.2760497613)scale(0.12 -0.12)">
       <use xlink:href="#BitstreamVeraSans-Roman-39"/>
       <use x="63.623046875" xlink:href="#BitstreamVeraSans-Roman-30"/>
      </g>
     </g>
    </g>
   </g>
   <g id="text_15">
    <!-- Data set 1 for logistic regression -->
    <defs>
     <path id="BitstreamVeraSans-Roman-20"/>
     <path d="
M12.4062 8.29688
L28.5156 8.29688
L28.5156 63.9219
L10.9844 60.4062
L10.9844 69.3906
L28.4219 72.9062
L38.2812 72.9062
L38.2812 8.29688
L54.3906 8.29688
L54.3906 0
L12.4062 0
z
" id="BitstreamVeraSans-Roman-31"/>
     <path d="
M54.8906 33.0156
L54.8906 0
L45.9062 0
L45.9062 32.7188
Q45.9062 40.4844 42.875 44.3281
Q39.8438 48.1875 33.7969 48.1875
Q26.5156 48.1875 22.3125 43.5469
Q18.1094 38.9219 18.1094 30.9062
L18.1094 0
L9.07812 0
L9.07812 54.6875
L18.1094 54.6875
L18.1094 46.1875
Q21.3438 51.125 25.7031 53.5625
Q30.0781 56 35.7969 56
Q45.2188 56 50.0469 50.1719
Q54.8906 44.3438 54.8906 33.0156" id="BitstreamVeraSans-Roman-6e"/>
     <path d="
M41.1094 46.2969
Q39.5938 47.1719 37.8125 47.5781
Q36.0312 48 33.8906 48
Q26.2656 48 22.1875 43.0469
Q18.1094 38.0938 18.1094 28.8125
L18.1094 0
L9.07812 0
L9.07812 54.6875
L18.1094 54.6875
L18.1094 46.1875
Q20.9531 51.1719 25.4844 53.5781
Q30.0312 56 36.5312 56
Q37.4531 56 38.5781 55.875
Q39.7031 55.7656 41.0625 55.5156
z
" id="BitstreamVeraSans-Roman-72"/>
     <path d="
M30.6094 48.3906
Q23.3906 48.3906 19.1875 42.75
Q14.9844 37.1094 14.9844 27.2969
Q14.9844 17.4844 19.1562 11.8438
Q23.3438 6.20312 30.6094 6.20312
Q37.7969 6.20312 41.9844 11.8594
Q46.1875 17.5312 46.1875 27.2969
Q46.1875 37.0156 41.9844 42.7031
Q37.7969 48.3906 30.6094 48.3906
M30.6094 56
Q42.3281 56 49.0156 48.375
Q55.7188 40.7656 55.7188 27.2969
Q55.7188 13.875 49.0156 6.21875
Q42.3281 -1.42188 30.6094 -1.42188
Q18.8438 -1.42188 12.1719 6.21875
Q5.51562 13.875 5.51562 27.2969
Q5.51562 40.7656 12.1719 48.375
Q18.8438 56 30.6094 56" id="BitstreamVeraSans-Roman-6f"/>
     <path d="
M9.42188 75.9844
L18.4062 75.9844
L18.4062 0
L9.42188 0
z
" id="BitstreamVeraSans-Roman-6c"/>
     <path d="
M19.6719 64.7969
L19.6719 8.10938
L31.5938 8.10938
Q46.6875 8.10938 53.6875 14.9375
Q60.6875 21.7812 60.6875 36.5312
Q60.6875 51.1719 53.6875 57.9844
Q46.6875 64.7969 31.5938 64.7969
z

M9.8125 72.9062
L30.0781 72.9062
Q51.2656 72.9062 61.1719 64.0938
Q71.0938 55.2812 71.0938 36.5312
Q71.0938 17.6719 61.125 8.82812
Q51.1719 0 30.0781 0
L9.8125 0
z
" id="BitstreamVeraSans-Roman-44"/>
     <path d="
M9.42188 54.6875
L18.4062 54.6875
L18.4062 0
L9.42188 0
z

M9.42188 75.9844
L18.4062 75.9844
L18.4062 64.5938
L9.42188 64.5938
z
" id="BitstreamVeraSans-Roman-69"/>
     <path d="
M48.7812 52.5938
L48.7812 44.1875
Q44.9688 46.2969 41.1406 47.3438
Q37.3125 48.3906 33.4062 48.3906
Q24.6562 48.3906 19.8125 42.8438
Q14.9844 37.3125 14.9844 27.2969
Q14.9844 17.2812 19.8125 11.7344
Q24.6562 6.20312 33.4062 6.20312
Q37.3125 6.20312 41.1406 7.25
Q44.9688 8.29688 48.7812 10.4062
L48.7812 2.09375
Q45.0156 0.34375 40.9844 -0.53125
Q36.9688 -1.42188 32.4219 -1.42188
Q20.0625 -1.42188 12.7812 6.34375
Q5.51562 14.1094 5.51562 27.2969
Q5.51562 40.6719 12.8594 48.3281
Q20.2188 56 33.0156 56
Q37.1562 56 41.1094 55.1406
Q45.0625 54.2969 48.7812 52.5938" id="BitstreamVeraSans-Roman-63"/>
     <path d="
M56.2031 29.5938
L56.2031 25.2031
L14.8906 25.2031
Q15.4844 15.9219 20.4844 11.0625
Q25.4844 6.20312 34.4219 6.20312
Q39.5938 6.20312 44.4531 7.46875
Q49.3125 8.73438 54.1094 11.2812
L54.1094 2.78125
Q49.2656 0.734375 44.1875 -0.34375
Q39.1094 -1.42188 33.8906 -1.42188
Q20.7969 -1.42188 13.1562 6.1875
Q5.51562 13.8125 5.51562 26.8125
Q5.51562 40.2344 12.7656 48.1094
Q20.0156 56 32.3281 56
Q43.3594 56 49.7812 48.8906
Q56.2031 41.7969 56.2031 29.5938
M47.2188 32.2344
Q47.125 39.5938 43.0938 43.9844
Q39.0625 48.3906 32.4219 48.3906
Q24.9062 48.3906 20.3906 44.1406
Q15.875 39.8906 15.1875 32.1719
z
" id="BitstreamVeraSans-Roman-65"/>
     <path d="
M18.3125 70.2188
L18.3125 54.6875
L36.8125 54.6875
L36.8125 47.7031
L18.3125 47.7031
L18.3125 18.0156
Q18.3125 11.3281 20.1406 9.42188
Q21.9688 7.51562 27.5938 7.51562
L36.8125 7.51562
L36.8125 0
L27.5938 0
Q17.1875 0 13.2344 3.875
Q9.28125 7.76562 9.28125 18.0156
L9.28125 47.7031
L2.6875 47.7031
L2.6875 54.6875
L9.28125 54.6875
L9.28125 70.2188
z
" id="BitstreamVeraSans-Roman-74"/>
     <path d="
M37.1094 75.9844
L37.1094 68.5
L28.5156 68.5
Q23.6875 68.5 21.7969 66.5469
Q19.9219 64.5938 19.9219 59.5156
L19.9219 54.6875
L34.7188 54.6875
L34.7188 47.7031
L19.9219 47.7031
L19.9219 0
L10.8906 0
L10.8906 47.7031
L2.29688 47.7031
L2.29688 54.6875
L10.8906 54.6875
L10.8906 58.5
Q10.8906 67.625 15.1406 71.7969
Q19.3906 75.9844 28.6094 75.9844
z
" id="BitstreamVeraSans-Roman-66"/>
     <path d="
M34.2812 27.4844
Q23.3906 27.4844 19.1875 25
Q14.9844 22.5156 14.9844 16.5
Q14.9844 11.7188 18.1406 8.90625
Q21.2969 6.10938 26.7031 6.10938
Q34.1875 6.10938 38.7031 11.4062
Q43.2188 16.7031 43.2188 25.4844
L43.2188 27.4844
z

M52.2031 31.2031
L52.2031 0
L43.2188 0
L43.2188 8.29688
Q40.1406 3.32812 35.5469 0.953125
Q30.9531 -1.42188 24.3125 -1.42188
Q15.9219 -1.42188 10.9531 3.29688
Q6 8.01562 6 15.9219
Q6 25.1406 12.1719 29.8281
Q18.3594 34.5156 30.6094 34.5156
L43.2188 34.5156
L43.2188 35.4062
Q43.2188 41.6094 39.1406 45
Q35.0625 48.3906 27.6875 48.3906
Q23 48.3906 18.5469 47.2656
Q14.1094 46.1406 10.0156 43.8906
L10.0156 52.2031
Q14.9375 54.1094 19.5781 55.0469
Q24.2188 56 28.6094 56
Q40.4844 56 46.3438 49.8438
Q52.2031 43.7031 52.2031 31.2031" id="BitstreamVeraSans-Roman-61"/>
     <path d="
M44.2812 53.0781
L44.2812 44.5781
Q40.4844 46.5312 36.375 47.5
Q32.2812 48.4844 27.875 48.4844
Q21.1875 48.4844 17.8438 46.4375
Q14.5 44.3906 14.5 40.2812
Q14.5 37.1562 16.8906 35.375
Q19.2812 33.5938 26.5156 31.9844
L29.5938 31.2969
Q39.1562 29.25 43.1875 25.5156
Q47.2188 21.7812 47.2188 15.0938
Q47.2188 7.46875 41.1875 3.01562
Q35.1562 -1.42188 24.6094 -1.42188
Q20.2188 -1.42188 15.4531 -0.5625
Q10.6875 0.296875 5.42188 2
L5.42188 11.2812
Q10.4062 8.6875 15.2344 7.39062
Q20.0625 6.10938 24.8125 6.10938
Q31.1562 6.10938 34.5625 8.28125
Q37.9844 10.4531 37.9844 14.4062
Q37.9844 18.0625 35.5156 20.0156
Q33.0625 21.9688 24.7031 23.7812
L21.5781 24.5156
Q13.2344 26.2656 9.51562 29.9062
Q5.8125 33.5469 5.8125 39.8906
Q5.8125 47.6094 11.2812 51.7969
Q16.75 56 26.8125 56
Q31.7812 56 36.1719 55.2656
Q40.5781 54.5469 44.2812 53.0781" id="BitstreamVeraSans-Roman-73"/>
     <path d="
M45.4062 27.9844
Q45.4062 37.75 41.375 43.1094
Q37.3594 48.4844 30.0781 48.4844
Q22.8594 48.4844 18.8281 43.1094
Q14.7969 37.75 14.7969 27.9844
Q14.7969 18.2656 18.8281 12.8906
Q22.8594 7.51562 30.0781 7.51562
Q37.3594 7.51562 41.375 12.8906
Q45.4062 18.2656 45.4062 27.9844
M54.3906 6.78125
Q54.3906 -7.17188 48.1875 -13.9844
Q42 -20.7969 29.2031 -20.7969
Q24.4688 -20.7969 20.2656 -20.0938
Q16.0625 -19.3906 12.1094 -17.9219
L12.1094 -9.1875
Q16.0625 -11.3281 19.9219 -12.3438
Q23.7812 -13.375 27.7812 -13.375
Q36.625 -13.375 41.0156 -8.76562
Q45.4062 -4.15625 45.4062 5.17188
L45.4062 9.625
Q42.625 4.78125 38.2812 2.39062
Q33.9375 0 27.875 0
Q17.8281 0 11.6719 7.65625
Q5.51562 15.3281 5.51562 27.9844
Q5.51562 40.6719 11.6719 48.3281
Q17.8281 56 27.875 56
Q33.9375 56 38.2812 53.6094
Q42.625 51.2188 45.4062 46.3906
L45.4062 54.6875
L54.3906 54.6875
z
" id="BitstreamVeraSans-Roman-67"/>
    </defs>
    <g transform="translate(101.647125 25.24)scale(0.144 -0.144)">
     <use xlink:href="#BitstreamVeraSans-Roman-44"/>
     <use x="77.001953125" xlink:href="#BitstreamVeraSans-Roman-61"/>
     <use x="138.28125" xlink:href="#BitstreamVeraSans-Roman-74"/>
     <use x="177.490234375" xlink:href="#BitstreamVeraSans-Roman-61"/>
     <use x="238.76953125" xlink:href="#BitstreamVeraSans-Roman-20"/>
     <use x="270.556640625" xlink:href="#BitstreamVeraSans-Roman-73"/>
     <use x="322.65625" xlink:href="#BitstreamVeraSans-Roman-65"/>
     <use x="384.1796875" xlink:href="#BitstreamVeraSans-Roman-74"/>
     <use x="423.388671875" xlink:href="#BitstreamVeraSans-Roman-20"/>
     <use x="455.17578125" xlink:href="#BitstreamVeraSans-Roman-31"/>
     <use x="518.798828125" xlink:href="#BitstreamVeraSans-Roman-20"/>
     <use x="550.5859375" xlink:href="#BitstreamVeraSans-Roman-66"/>
     <use x="585.791015625" xlink:href="#BitstreamVeraSans-Roman-6f"/>
     <use x="646.97265625" xlink:href="#BitstreamVeraSans-Roman-72"/>
     <use x="688.0859375" xlink:href="#BitstreamVeraSans-Roman-20"/>
     <use x="719.873046875" xlink:href="#BitstreamVeraSans-Roman-6c"/>
     <use x="747.65625" xlink:href="#BitstreamVeraSans-Roman-6f"/>
     <use x="808.837890625" xlink:href="#BitstreamVeraSans-Roman-67"/>
     <use x="872.314453125" xlink:href="#BitstreamVeraSans-Roman-69"/>
     <use x="900.09765625" xlink:href="#BitstreamVeraSans-Roman-73"/>
     <use x="952.197265625" xlink:href="#BitstreamVeraSans-Roman-74"/>
     <use x="991.40625" xlink:href="#BitstreamVeraSans-Roman-69"/>
     <use x="1019.18945312" xlink:href="#BitstreamVeraSans-Roman-63"/>
     <use x="1074.16992188" xlink:href="#BitstreamVeraSans-Roman-20"/>
     <use x="1105.95703125" xlink:href="#BitstreamVeraSans-Roman-72"/>
     <use x="1144.8203125" xlink:href="#BitstreamVeraSans-Roman-65"/>
     <use x="1206.34375" xlink:href="#BitstreamVeraSans-Roman-67"/>
     <use x="1269.8203125" xlink:href="#BitstreamVeraSans-Roman-72"/>
     <use x="1308.68359375" xlink:href="#BitstreamVeraSans-Roman-65"/>
     <use x="1370.20703125" xlink:href="#BitstreamVeraSans-Roman-73"/>
     <use x="1422.30664062" xlink:href="#BitstreamVeraSans-Roman-73"/>
     <use x="1474.40625" xlink:href="#BitstreamVeraSans-Roman-69"/>
     <use x="1502.18945312" xlink:href="#BitstreamVeraSans-Roman-6f"/>
     <use x="1563.37109375" xlink:href="#BitstreamVeraSans-Roman-6e"/>
    </g>
   </g>
   <g id="legend_1">
    <g id="patch_7">
     <path d="
M314.354 84.033
L394.56 84.033
L394.56 37.44
L314.354 37.44
z
" style="fill:#ffffff;stroke:#000000;stroke-linejoin:miter;"/>
    </g>
    <g id="line2d_27">
     <path d="
M324.434 49.1018
L344.594 49.1018" style="fill:none;"/>
    </g>
    <g id="line2d_28">
     <g>
      <use style="fill:#0000ff;stroke:#000000;stroke-width:0.5;" x="324.43425" xlink:href="#mf1e9a9e4ae" y="49.10175"/>
      <use style="fill:#0000ff;stroke:#000000;stroke-width:0.5;" x="344.59425" xlink:href="#mf1e9a9e4ae" y="49.10175"/>
     </g>
    </g>
    <g id="text_16">
     <!-- y=1 -->
     <defs>
      <path d="
M10.5938 45.4062
L73.1875 45.4062
L73.1875 37.2031
L10.5938 37.2031
z

M10.5938 25.4844
L73.1875 25.4844
L73.1875 17.1875
L10.5938 17.1875
z
" id="BitstreamVeraSans-Roman-3d"/>
      <path d="
M32.1719 -5.07812
Q28.375 -14.8438 24.75 -17.8125
Q21.1406 -20.7969 15.0938 -20.7969
L7.90625 -20.7969
L7.90625 -13.2812
L13.1875 -13.2812
Q16.8906 -13.2812 18.9375 -11.5156
Q21 -9.76562 23.4844 -3.21875
L25.0938 0.875
L2.98438 54.6875
L12.5 54.6875
L29.5938 11.9219
L46.6875 54.6875
L56.2031 54.6875
z
" id="BitstreamVeraSans-Roman-79"/>
     </defs>
     <g transform="translate(360.43425 54.14175)scale(0.144 -0.144)">
      <use xlink:href="#BitstreamVeraSans-Roman-79"/>
      <use x="59.1796875" xlink:href="#BitstreamVeraSans-Roman-3d"/>
      <use x="142.96875" xlink:href="#BitstreamVeraSans-Roman-31"/>
     </g>
    </g>
    <g id="line2d_29">
     <path d="
M324.434 70.2383
L344.594 70.2383" style="fill:none;"/>
    </g>
    <g id="line2d_30">
     <g>
      <use style="fill:#ff0000;stroke:#ff0000;stroke-width:0.5;" x="324.43425" xlink:href="#m562aef8efe" y="70.23825"/>
      <use style="fill:#ff0000;stroke:#ff0000;stroke-width:0.5;" x="344.59425" xlink:href="#m562aef8efe" y="70.23825"/>
     </g>
    </g>
    <g id="text_17">
     <!-- y=0 -->
     <g transform="translate(360.43425 75.27825)scale(0.144 -0.144)">
      <use xlink:href="#BitstreamVeraSans-Roman-79"/>
      <use x="59.1796875" xlink:href="#BitstreamVeraSans-Roman-3d"/>
      <use x="142.96875" xlink:href="#BitstreamVeraSans-Roman-30"/>
     </g>
    </g>
   </g>
  </g>
 </g>
 <defs>
  <clipPath id="p9a4adf5a13">
   <rect height="367.2" width="367.2" x="34.56" y="30.24"/>
  </clipPath>
 </defs>
</svg>
